<?xml version="1.0" standalone="no"?><!-- Generator: Gravit.io --><svg xmlns="http://www.w3.org/2000/svg" xmlns:xlink="http://www.w3.org/1999/xlink" style="isolation:isolate" viewBox="0 0 400 512" width="400" height="512"><defs><clipPath id="_clipPath_g3LqqUaZXU6mSEI7UefyGp3ksuDuBM4z"><rect width="400" height="512"/></clipPath></defs><g clip-path="url(#_clipPath_g3LqqUaZXU6mSEI7UefyGp3ksuDuBM4z)"><path d=" M 401.679 141.75 L 401.679 141.75 Z  M 401.679 141.75 L 401.679 141.75 Z  M 15.55 318.938 C 11.835 318.938 8.819 321.954 8.819 325.668 L 8.819 342.674 C 8.819 346.388 11.835 349.404 15.55 349.404 L 20.529 349.404 C 24.244 349.404 27.26 346.388 27.26 342.674 L 27.26 325.668 C 27.26 321.954 24.244 318.938 20.529 318.938 L 15.55 318.938 Z  M 401.679 141.75 L 401.679 141.75 Z  M 389.969 279.652 C 386.255 279.652 383.239 282.668 383.239 286.382 L 383.239 303.388 C 383.239 307.102 386.255 310.118 389.969 310.118 L 394.948 310.118 C 398.663 310.118 401.679 307.102 401.679 303.388 L 401.679 286.382 C 401.679 282.668 398.663 279.652 394.948 279.652 L 389.969 279.652 Z  M 401.679 141.75 L 401.679 141.75 Z  M 15.55 279.652 C 11.835 279.652 8.819 282.668 8.819 286.382 L 8.819 303.388 C 8.819 307.102 11.835 310.118 15.55 310.118 L 20.529 310.118 C 24.244 310.118 27.26 307.102 27.26 303.388 L 27.26 286.382 C 27.26 282.668 24.244 279.652 20.529 279.652 L 15.55 279.652 Z  M 401.679 141.75 L 401.679 141.75 Z  M 389.969 241.168 C 386.255 241.168 383.239 244.183 383.239 247.898 L 383.239 264.903 C 383.239 268.618 386.255 271.634 389.969 271.634 L 394.948 271.634 C 398.663 271.634 401.679 268.618 401.679 264.903 L 401.679 247.898 C 401.679 244.183 398.663 241.168 394.948 241.168 L 389.969 241.168 Z  M 389.969 318.938 C 386.255 318.938 383.239 321.954 383.239 325.668 L 383.239 342.674 C 383.239 346.388 386.255 349.404 389.969 349.404 L 394.948 349.404 C 398.663 349.404 401.679 346.388 401.679 342.674 L 401.679 325.668 C 401.679 321.954 398.663 318.938 394.948 318.938 L 389.969 318.938 Z  M 15.55 241.168 C 11.835 241.168 8.819 244.183 8.819 247.898 L 8.819 264.903 C 8.819 268.618 11.835 271.634 15.55 271.634 L 20.529 271.634 C 24.244 271.634 27.26 268.618 27.26 264.903 L 27.26 247.898 C 27.26 244.183 24.244 241.168 20.529 241.168 L 15.55 241.168 Z  M 401.679 141.75 L 401.679 141.75 Z  M 389.969 202.683 C 386.255 202.683 383.239 205.699 383.239 209.414 L 383.239 226.419 C 383.239 230.134 386.255 233.15 389.969 233.15 L 394.948 233.15 C 398.663 233.15 401.679 230.134 401.679 226.419 L 401.679 209.414 C 401.679 205.699 398.663 202.683 394.948 202.683 L 389.969 202.683 Z  M 401.679 141.75 L 401.679 141.75 Z  M 15.55 202.683 C 11.835 202.683 8.819 205.699 8.819 209.414 L 8.819 226.419 C 8.819 230.134 11.835 233.15 15.55 233.15 L 20.529 233.15 C 24.244 233.15 27.26 230.134 27.26 226.419 L 27.26 209.414 C 27.26 205.699 24.244 202.683 20.529 202.683 L 15.55 202.683 Z  M 401.679 141.75 L 401.679 141.75 Z  M 389.969 164.199 C 386.255 164.199 383.239 167.215 383.239 170.93 L 383.239 187.935 C 383.239 191.65 386.255 194.666 389.969 194.666 L 394.948 194.666 C 398.663 194.666 401.679 191.65 401.679 187.935 L 401.679 170.93 C 401.679 167.215 398.663 164.199 394.948 164.199 L 389.969 164.199 Z  M 401.679 141.75 L 401.679 141.75 Z  M 15.55 164.199 L 20.529 164.199 C 24.244 164.199 27.26 167.215 27.26 170.93 L 27.26 187.935 C 27.26 191.65 24.244 194.666 20.529 194.666 L 15.55 194.666 C 11.835 194.666 8.819 191.65 8.819 187.935 L 8.819 170.93 C 8.819 167.215 11.835 164.199 15.55 164.199 L 15.55 164.199 Z  M 383.239 370.25 L 27.26 370.25 L 27.26 370.25 L 27.26 362.549 C 27.26 358.834 24.244 355.818 20.529 355.818 L 15.55 355.818 C 11.835 355.818 8.819 358.834 8.819 362.549 L 8.819 370.25 L 0 370.25 L 0 141.75 L 8.819 141.75 L 8.819 150.253 C 8.819 153.967 11.835 156.983 15.55 156.983 L 20.529 156.983 C 24.244 156.983 27.26 153.967 27.26 150.253 L 27.26 141.75 L 383.239 141.75 L 383.239 150.253 C 383.239 153.967 386.255 156.983 389.969 156.983 L 394.948 156.983 C 398.663 156.983 401.679 153.967 401.679 150.253 L 401.679 141.75 L 410.498 141.75 L 410.498 370.25 L 401.679 370.25 L 401.679 362.549 C 401.679 358.834 398.663 355.818 394.948 355.818 L 389.969 355.818 C 386.255 355.818 383.239 358.834 383.239 362.549 L 383.239 370.25 Z " fill-rule="evenodd" fill="rgb(0,0,0)"/><linearGradient id="_lgradient_2" x1="0%" y1="50%" x2="100%" y2="50%"><stop offset="0%" stop-opacity="1" style="stop-color:rgb(134,0,120)"/><stop offset="53.04347826086957%" stop-opacity="1" style="stop-color:rgb(83,12,137)"/><stop offset="99.56521739130434%" stop-opacity="1" style="stop-color:rgb(0,23,151)"/><stop offset="100%" stop-opacity="1" style="stop-color:rgb(0,0,0)"/></linearGradient><rect x="37.682" y="156.983" width="335.133" height="198.033" transform="matrix(1,0,0,1,0,0)" fill="url(#_lgradient_2)"/><path d=" M 223.77 269.589 L 210.641 277.364 L 197.512 285.138 C 184.846 292.638 174.562 286.776 174.562 272.056 L 174.562 256 L 174.562 239.944 C 174.562 225.224 184.846 219.362 197.512 226.862 L 210.641 234.636 L 223.77 242.411 C 236.436 249.911 236.436 262.089 223.77 269.589 Z " fill="rgb(244,67,54)" vector-effect="non-scaling-stroke" stroke-width="5" stroke="rgb(255,255,255)" stroke-linejoin="miter" stroke-linecap="square" stroke-miterlimit="3"/></g></svg>