<?xml version="1.0" standalone="no"?><!-- Generator: Gravit.io --><svg xmlns="http://www.w3.org/2000/svg" xmlns:xlink="http://www.w3.org/1999/xlink" style="isolation:isolate" viewBox="0 0 512 512" width="512" height="512"><defs><clipPath id="_clipPath_usePnEPSM0MFtnOgmAr3z7yfaBufZ3kI"><rect width="512" height="512"/></clipPath></defs><g clip-path="url(#_clipPath_usePnEPSM0MFtnOgmAr3z7yfaBufZ3kI)"><path d=" M 501 113.5 L 501 113.5 Z  M 501 113.5 L 501 113.5 Z  M 19.395 334.5 C 14.762 334.5 11 338.262 11 342.895 L 11 364.105 C 11 368.738 14.762 372.5 19.395 372.5 L 25.605 372.5 C 30.238 372.5 34 368.738 34 364.105 L 34 342.895 C 34 338.262 30.238 334.5 25.605 334.5 L 19.395 334.5 Z  M 501 113.5 L 501 113.5 Z  M 486.395 285.5 C 481.762 285.5 478 289.262 478 293.895 L 478 315.105 C 478 319.738 481.762 323.5 486.395 323.5 L 492.605 323.5 C 497.238 323.5 501 319.738 501 315.105 L 501 293.895 C 501 289.262 497.238 285.5 492.605 285.5 L 486.395 285.5 Z  M 501 113.5 L 501 113.5 Z  M 19.395 285.5 C 14.762 285.5 11 289.262 11 293.895 L 11 315.105 C 11 319.738 14.762 323.5 19.395 323.5 L 25.605 323.5 C 30.238 323.5 34 319.738 34 315.105 L 34 293.895 C 34 289.262 30.238 285.5 25.605 285.5 L 19.395 285.5 Z  M 501 113.5 L 501 113.5 Z  M 486.395 237.5 C 481.762 237.5 478 241.262 478 245.895 L 478 267.105 C 478 271.738 481.762 275.5 486.395 275.5 L 492.605 275.5 C 497.238 275.5 501 271.738 501 267.105 L 501 245.895 C 501 241.262 497.238 237.5 492.605 237.5 L 486.395 237.5 Z  M 486.395 334.5 C 481.762 334.5 478 338.262 478 342.895 L 478 364.105 C 478 368.738 481.762 372.5 486.395 372.5 L 492.605 372.5 C 497.238 372.5 501 368.738 501 364.105 L 501 342.895 C 501 338.262 497.238 334.5 492.605 334.5 L 486.395 334.5 Z  M 19.395 237.5 C 14.762 237.5 11 241.262 11 245.895 L 11 267.105 C 11 271.738 14.762 275.5 19.395 275.5 L 25.605 275.5 C 30.238 275.5 34 271.738 34 267.105 L 34 245.895 C 34 241.262 30.238 237.5 25.605 237.5 L 19.395 237.5 Z  M 501 113.5 L 501 113.5 Z  M 486.395 189.5 C 481.762 189.5 478 193.262 478 197.895 L 478 219.105 C 478 223.738 481.762 227.5 486.395 227.5 L 492.605 227.5 C 497.238 227.5 501 223.738 501 219.105 L 501 197.895 C 501 193.262 497.238 189.5 492.605 189.5 L 486.395 189.5 Z  M 501 113.5 L 501 113.5 Z  M 19.395 189.5 C 14.762 189.5 11 193.262 11 197.895 L 11 219.105 C 11 223.738 14.762 227.5 19.395 227.5 L 25.605 227.5 C 30.238 227.5 34 223.738 34 219.105 L 34 197.895 C 34 193.262 30.238 189.5 25.605 189.5 L 19.395 189.5 Z  M 501 113.5 L 501 113.5 Z  M 486.395 141.5 C 481.762 141.5 478 145.262 478 149.895 L 478 171.105 C 478 175.738 481.762 179.5 486.395 179.5 L 492.605 179.5 C 497.238 179.5 501 175.738 501 171.105 L 501 149.895 C 501 145.262 497.238 141.5 492.605 141.5 L 486.395 141.5 Z  M 501 113.5 L 501 113.5 Z  M 19.395 141.5 L 25.605 141.5 C 30.238 141.5 34 145.262 34 149.895 L 34 171.105 C 34 175.738 30.238 179.5 25.605 179.5 L 19.395 179.5 C 14.762 179.5 11 175.738 11 171.105 L 11 149.895 C 11 145.262 14.762 141.5 19.395 141.5 L 19.395 141.5 Z  M 478 398.5 L 34 398.5 L 34 398.5 L 34 388.895 C 34 384.262 30.238 380.5 25.605 380.5 L 19.395 380.5 C 14.762 380.5 11 384.262 11 388.895 L 11 398.5 L 0 398.5 L 0 113.5 L 11 113.5 L 11 124.105 C 11 128.738 14.762 132.5 19.395 132.5 L 25.605 132.5 C 30.238 132.5 34 128.738 34 124.105 L 34 113.5 L 478 113.5 L 478 124.105 C 478 128.738 481.762 132.5 486.395 132.5 L 492.605 132.5 C 497.238 132.5 501 128.738 501 124.105 L 501 113.5 L 512 113.5 L 512 398.5 L 501 398.5 L 501 388.895 C 501 384.262 497.238 380.5 492.605 380.5 L 486.395 380.5 C 481.762 380.5 478 384.262 478 388.895 L 478 398.5 Z " fill-rule="evenodd" fill="rgb(0,0,0)"/><linearGradient id="_lgradient_0" x1="0%" y1="50%" x2="100%" y2="50%"><stop offset="0%" stop-opacity="1" style="stop-color:rgb(134,0,120)"/><stop offset="53.04347826086957%" stop-opacity="1" style="stop-color:rgb(83,12,137)"/><stop offset="99.56521739130434%" stop-opacity="1" style="stop-color:rgb(0,23,151)"/><stop offset="100%" stop-opacity="1" style="stop-color:rgb(0,0,0)"/></linearGradient><rect x="47" y="132.5" width="418" height="247" transform="matrix(1,0,0,1,0,0)" fill="url(#_lgradient_0)"/><path d=" M 284.775 269.589 L 262.725 282.646 L 240.675 295.703 C 228.009 303.203 217.725 297.341 217.725 282.62 L 217.725 256 L 217.725 229.38 C 217.725 214.659 228.009 208.797 240.675 216.297 L 262.725 229.354 L 284.775 242.411 C 297.442 249.911 297.442 262.089 284.775 269.589 Z " fill="rgb(244,67,54)" vector-effect="non-scaling-stroke" stroke-width="5" stroke="rgb(255,255,255)" stroke-linejoin="miter" stroke-linecap="square" stroke-miterlimit="3"/></g></svg>