<?xml version="1.0" standalone="no"?><!-- Generator: Gravit.io --><svg xmlns="http://www.w3.org/2000/svg" xmlns:xlink="http://www.w3.org/1999/xlink" style="isolation:isolate" viewBox="0 0 400 512" width="400" height="512"><defs><clipPath id="_clipPath_3jeCa3y5wayt68XpErzlu7LyHT47Z09a"><rect width="400" height="512"/></clipPath></defs><g clip-path="url(#_clipPath_3jeCa3y5wayt68XpErzlu7LyHT47Z09a)"><path d=" M 391.406 140.729 L 391.406 140.729 Z  M 391.406 140.729 L 391.406 140.729 Z  M 15.267 319.5 C 11.584 319.5 8.594 322.491 8.594 326.174 L 8.594 343.565 C 8.594 347.249 11.584 350.239 15.267 350.239 L 19.889 350.239 C 23.572 350.239 26.562 347.249 26.563 343.565 L 26.563 326.174 C 26.562 322.491 23.572 319.5 19.889 319.5 L 15.267 319.5 Z  M 391.406 140.729 L 391.406 140.729 Z  M 380.111 279.863 C 376.428 279.863 373.438 282.854 373.438 286.537 L 373.438 303.928 C 373.438 307.612 376.428 310.602 380.111 310.602 L 384.733 310.602 C 388.416 310.602 391.406 307.612 391.406 303.928 L 391.406 286.537 C 391.406 282.854 388.416 279.863 384.733 279.863 L 380.111 279.863 Z  M 391.406 140.729 L 391.406 140.729 Z  M 15.267 279.863 C 11.584 279.863 8.594 282.854 8.594 286.537 L 8.594 303.928 C 8.594 307.612 11.584 310.602 15.267 310.602 L 19.889 310.602 C 23.572 310.602 26.562 307.612 26.563 303.928 L 26.563 286.537 C 26.562 282.854 23.572 279.863 19.889 279.863 L 15.267 279.863 Z  M 391.406 140.729 L 391.406 140.729 Z  M 380.111 241.035 C 376.428 241.035 373.438 244.025 373.438 247.709 L 373.438 265.1 C 373.438 268.784 376.428 271.774 380.111 271.774 L 384.733 271.774 C 388.416 271.774 391.406 268.784 391.406 265.1 L 391.406 247.709 C 391.406 244.025 388.416 241.035 384.733 241.035 L 380.111 241.035 Z  M 380.111 319.5 C 376.428 319.5 373.438 322.491 373.438 326.174 L 373.438 343.565 C 373.438 347.249 376.428 350.239 380.111 350.239 L 384.733 350.239 C 388.416 350.239 391.406 347.249 391.406 343.565 L 391.406 326.174 C 391.406 322.491 388.416 319.5 384.733 319.5 L 380.111 319.5 Z  M 15.267 241.035 C 11.584 241.035 8.594 244.025 8.594 247.709 L 8.594 265.1 C 8.594 268.784 11.584 271.774 15.267 271.774 L 19.889 271.774 C 23.572 271.774 26.562 268.784 26.563 265.1 L 26.563 247.709 C 26.562 244.025 23.572 241.035 19.889 241.035 L 15.267 241.035 Z  M 391.406 140.729 L 391.406 140.729 Z  M 380.111 202.207 C 376.428 202.207 373.438 205.197 373.438 208.881 L 373.438 226.272 C 373.438 229.955 376.428 232.946 380.111 232.946 L 384.733 232.946 C 388.416 232.946 391.406 229.955 391.406 226.272 L 391.406 208.881 C 391.406 205.197 388.416 202.207 384.733 202.207 L 380.111 202.207 Z  M 391.406 140.729 L 391.406 140.729 Z  M 15.267 202.207 C 11.584 202.207 8.594 205.197 8.594 208.881 L 8.594 226.272 C 8.594 229.955 11.584 232.946 15.267 232.946 L 19.889 232.946 C 23.572 232.946 26.562 229.955 26.563 226.272 L 26.563 208.881 C 26.562 205.197 23.572 202.207 19.889 202.207 L 15.267 202.207 Z  M 391.406 140.729 L 391.406 140.729 Z  M 380.111 163.379 C 376.428 163.379 373.438 166.369 373.438 170.052 L 373.438 187.444 C 373.438 191.127 376.428 194.118 380.111 194.118 L 384.733 194.118 C 388.416 194.118 391.406 191.127 391.406 187.444 L 391.406 170.052 C 391.406 166.369 388.416 163.379 384.733 163.379 L 380.111 163.379 Z  M 391.406 140.729 L 391.406 140.729 Z  M 373.438 371.271 L 26.563 371.271 L 26.563 371.271 L 26.563 363.384 C 26.562 359.701 23.572 356.71 19.889 356.71 L 15.267 356.71 C 11.584 356.71 8.594 359.701 8.594 363.384 L 8.594 371.271 L 0 371.271 L 0 140.729 L 8.594 140.729 L 8.594 149.425 C 8.594 153.108 11.584 156.098 15.267 156.098 L 19.889 156.098 C 23.572 156.098 26.562 153.108 26.563 149.425 L 26.563 140.729 L 373.438 140.729 L 373.438 149.425 C 373.438 153.108 376.428 156.098 380.111 156.098 L 384.733 156.098 C 388.416 156.098 391.406 153.108 391.406 149.425 L 391.406 140.729 L 400 140.729 L 400 371.271 L 391.406 371.271 L 391.406 363.384 C 391.406 359.701 388.416 356.71 384.733 356.71 L 380.111 356.71 C 376.428 356.71 373.438 359.701 373.438 363.384 L 373.438 371.271 Z  M 15.267 163.379 L 19.889 163.379 C 23.572 163.379 26.562 166.369 26.563 170.052 L 26.563 187.444 C 26.562 191.127 23.572 194.118 19.889 194.118 L 15.267 194.118 C 11.584 194.118 8.594 191.127 8.594 187.444 L 8.594 170.052 C 8.594 166.369 11.584 163.379 15.267 163.379 L 15.267 163.379 Z " fill-rule="evenodd" fill="rgb(0,0,0)"/><linearGradient id="_lgradient_24" x1="0%" y1="50.000000000000014%" x2="100.60287081339713%" y2="49.87487264391272%"><stop offset="0%" stop-opacity="1" style="stop-color:rgb(255,247,0)"/><stop offset="99.1304347826087%" stop-opacity="1" style="stop-color:rgb(255,0,0)"/></linearGradient><rect x="36.719" y="156.098" width="326.563" height="199.803" transform="matrix(1,0,0,1,0,0)" fill="url(#_lgradient_24)" fill-opacity="0.5"/><linearGradient id="_lgradient_25" x1="0%" y1="50%" x2="100%" y2="50%"><stop offset="1.7391304347826086%" stop-opacity="1" style="stop-color:rgb(144,0,255)"/><stop offset="100%" stop-opacity="1" style="stop-color:rgb(0,0,0)"/></linearGradient><rect x="36.719" y="156.098" width="326.563" height="199.803" transform="matrix(1,0,0,1,0,0)" fill="url(#_lgradient_25)" fill-opacity="0.5"/><path d=" M 217.672 269.941 L 205.254 277.554 L 192.836 285.168 C 180.286 292.862 170.098 287.158 170.098 272.437 L 170.098 256 L 170.098 239.563 C 170.098 224.842 180.286 219.138 192.836 226.832 L 205.254 234.446 L 217.672 242.059 C 230.222 249.753 230.222 262.247 217.672 269.941 Z " fill="rgb(244,67,54)" vector-effect="non-scaling-stroke" stroke-width="5" stroke="rgb(255,255,255)" stroke-linejoin="miter" stroke-linecap="square" stroke-miterlimit="3"/></g></svg>