<?xml version="1.0" standalone="no"?><!-- Generator: Gravit.io --><svg xmlns="http://www.w3.org/2000/svg" xmlns:xlink="http://www.w3.org/1999/xlink" style="isolation:isolate" viewBox="0 0 400 512" width="400" height="512"><defs><clipPath id="_clipPath_mjHklObFuhxHBXVZJ9r6EW2aNZdU0f8j"><rect width="400" height="512"/></clipPath></defs><g clip-path="url(#_clipPath_mjHklObFuhxHBXVZJ9r6EW2aNZdU0f8j)"><path d=" M 391.406 140.733 L 391.406 140.733 Z  M 391.406 140.733 L 391.406 140.733 Z  M 15.267 319.498 C 11.584 319.498 8.594 322.488 8.594 326.172 L 8.594 343.562 C 8.594 347.246 11.584 350.236 15.267 350.236 L 19.889 350.236 C 23.572 350.236 26.562 347.246 26.563 343.562 L 26.563 326.172 C 26.562 322.488 23.572 319.498 19.889 319.498 L 15.267 319.498 Z  M 391.406 140.733 L 391.406 140.733 Z  M 380.111 279.862 C 376.428 279.862 373.438 282.853 373.438 286.536 L 373.438 303.927 C 373.438 307.61 376.428 310.6 380.111 310.6 L 384.733 310.6 C 388.416 310.6 391.406 307.61 391.406 303.927 L 391.406 286.536 C 391.406 282.853 388.416 279.862 384.733 279.862 L 380.111 279.862 Z  M 391.406 140.733 L 391.406 140.733 Z  M 15.267 279.862 C 11.584 279.862 8.594 282.853 8.594 286.536 L 8.594 303.927 C 8.594 307.61 11.584 310.6 15.267 310.6 L 19.889 310.6 C 23.572 310.6 26.562 307.61 26.563 303.927 L 26.563 286.536 C 26.562 282.853 23.572 279.862 19.889 279.862 L 15.267 279.862 Z  M 391.406 140.733 L 391.406 140.733 Z  M 380.111 241.035 C 376.428 241.035 373.438 244.026 373.438 247.709 L 373.438 265.1 C 373.438 268.783 376.428 271.773 380.111 271.773 L 384.733 271.773 C 388.416 271.773 391.406 268.783 391.406 265.1 L 391.406 247.709 C 391.406 244.026 388.416 241.035 384.733 241.035 L 380.111 241.035 Z  M 380.111 319.498 C 376.428 319.498 373.438 322.488 373.438 326.172 L 373.438 343.562 C 373.438 347.246 376.428 350.236 380.111 350.236 L 384.733 350.236 C 388.416 350.236 391.406 347.246 391.406 343.562 L 391.406 326.172 C 391.406 322.488 388.416 319.498 384.733 319.498 L 380.111 319.498 Z  M 15.267 241.035 C 11.584 241.035 8.594 244.026 8.594 247.709 L 8.594 265.1 C 8.594 268.783 11.584 271.773 15.267 271.773 L 19.889 271.773 C 23.572 271.773 26.562 268.783 26.563 265.1 L 26.563 247.709 C 26.562 244.026 23.572 241.035 19.889 241.035 L 15.267 241.035 Z  M 391.406 140.733 L 391.406 140.733 Z  M 380.111 202.209 C 376.428 202.209 373.438 205.199 373.438 208.882 L 373.438 226.273 C 373.438 229.956 376.428 232.947 380.111 232.947 L 384.733 232.947 C 388.416 232.947 391.406 229.956 391.406 226.273 L 391.406 208.882 C 391.406 205.199 388.416 202.209 384.733 202.209 L 380.111 202.209 Z  M 391.406 140.733 L 391.406 140.733 Z  M 15.267 202.209 C 11.584 202.209 8.594 205.199 8.594 208.882 L 8.594 226.273 C 8.594 229.956 11.584 232.947 15.267 232.947 L 19.889 232.947 C 23.572 232.947 26.562 229.956 26.563 226.273 L 26.563 208.882 C 26.562 205.199 23.572 202.209 19.889 202.209 L 15.267 202.209 Z  M 391.406 140.733 L 391.406 140.733 Z  M 380.111 163.382 C 376.428 163.382 373.438 166.372 373.438 170.055 L 373.438 187.446 C 373.438 191.129 376.428 194.12 380.111 194.12 L 384.733 194.12 C 388.416 194.12 391.406 191.129 391.406 187.446 L 391.406 170.055 C 391.406 166.372 388.416 163.382 384.733 163.382 L 380.111 163.382 Z  M 391.406 140.733 L 391.406 140.733 Z  M 373.438 371.267 L 26.563 371.267 L 26.563 371.267 L 26.563 363.381 C 26.562 359.697 23.572 356.707 19.889 356.707 L 15.267 356.707 C 11.584 356.707 8.594 359.697 8.594 363.381 L 8.594 371.267 L 0 371.267 L 0 140.733 L 8.594 140.733 L 8.594 149.428 C 8.594 153.111 11.584 156.102 15.267 156.102 L 19.889 156.102 C 23.572 156.102 26.562 153.111 26.563 149.428 L 26.563 140.733 L 373.438 140.733 L 373.438 149.428 C 373.438 153.111 376.428 156.102 380.111 156.102 L 384.733 156.102 C 388.416 156.102 391.406 153.111 391.406 149.428 L 391.406 140.733 L 400 140.733 L 400 371.267 L 391.406 371.267 L 391.406 363.381 C 391.406 359.697 388.416 356.707 384.733 356.707 L 380.111 356.707 C 376.428 356.707 373.438 359.697 373.438 363.381 L 373.438 371.267 Z  M 15.267 163.382 L 19.889 163.382 C 23.572 163.382 26.562 166.372 26.563 170.055 L 26.563 187.446 C 26.562 191.129 23.572 194.12 19.889 194.12 L 15.267 194.12 C 11.584 194.12 8.594 191.129 8.594 187.446 L 8.594 170.055 C 8.594 166.372 11.584 163.382 15.267 163.382 L 15.267 163.382 Z " fill-rule="evenodd" fill="rgb(0,0,0)"/><linearGradient id="_lgradient_8" x1="0%" y1="50%" x2="100.60287081339713%" y2="49.87487264391237%"><stop offset="0%" stop-opacity="1" style="stop-color:rgb(255,0,230)"/><stop offset="99.56521739130434%" stop-opacity="1" style="stop-color:rgb(255,151,0)"/><stop offset="100%" stop-opacity="1" style="stop-color:rgb(255,25,0)"/></linearGradient><rect x="36.719" y="156.102" width="326.562" height="199.796" transform="matrix(1,0,0,1,0,0)" fill="url(#_lgradient_8)"/><path d=" M 217.672 269.941 L 205.254 277.554 L 192.836 285.167 C 180.286 292.861 170.098 287.156 170.098 272.436 L 170.098 256 L 170.098 239.564 C 170.098 224.844 180.286 219.139 192.836 226.833 L 205.254 234.446 L 217.672 242.059 C 230.221 249.753 230.221 262.247 217.672 269.941 Z " fill="rgb(244,67,54)" vector-effect="non-scaling-stroke" stroke-width="5" stroke="rgb(255,255,255)" stroke-linejoin="miter" stroke-linecap="square" stroke-miterlimit="3"/></g></svg>