<?xml version="1.0" standalone="no"?><!-- Generator: Gravit.io --><svg xmlns="http://www.w3.org/2000/svg" xmlns:xlink="http://www.w3.org/1999/xlink" style="isolation:isolate" viewBox="0 0 512 512" width="512" height="512"><defs><clipPath id="_clipPath_qPpBpnnTpiIpmfBZT9ba2W8lilcvyie7"><rect width="512" height="512"/></clipPath></defs><g clip-path="url(#_clipPath_qPpBpnnTpiIpmfBZT9ba2W8lilcvyie7)"><path d=" M 501 108.458 L 501 108.458 Z  M 501 108.458 L 501 108.458 Z  M 19.542 337.278 C 14.828 337.278 11 341.105 11 345.82 L 11 368.08 C 11 372.794 14.828 376.622 19.542 376.622 L 25.458 376.622 C 30.172 376.622 34 372.794 34 368.08 L 34 345.82 C 34 341.105 30.172 337.278 25.458 337.278 L 19.542 337.278 Z  M 501 108.458 L 501 108.458 Z  M 486.542 286.544 C 481.828 286.544 478 290.371 478 295.086 L 478 317.346 C 478 322.061 481.828 325.888 486.542 325.888 L 492.458 325.888 C 497.172 325.888 501 322.061 501 317.346 L 501 295.086 C 501 290.371 497.172 286.544 492.458 286.544 L 486.542 286.544 Z  M 501 108.458 L 501 108.458 Z  M 19.542 286.544 C 14.828 286.544 11 290.371 11 295.086 L 11 317.346 C 11 322.061 14.828 325.888 19.542 325.888 L 25.458 325.888 C 30.172 325.888 34 322.061 34 317.346 L 34 295.086 C 34 290.371 30.172 286.544 25.458 286.544 L 19.542 286.544 Z  M 501 108.458 L 501 108.458 Z  M 486.542 236.845 C 481.828 236.845 478 240.673 478 245.388 L 478 267.648 C 478 272.362 481.828 276.19 486.542 276.19 L 492.458 276.19 C 497.172 276.19 501 272.362 501 267.648 L 501 245.388 C 501 240.673 497.172 236.845 492.458 236.845 L 486.542 236.845 Z  M 486.542 337.278 C 481.828 337.278 478 341.105 478 345.82 L 478 368.08 C 478 372.794 481.828 376.622 486.542 376.622 L 492.458 376.622 C 497.172 376.622 501 372.794 501 368.08 L 501 345.82 C 501 341.105 497.172 337.278 492.458 337.278 L 486.542 337.278 Z  M 19.542 236.845 C 14.828 236.845 11 240.673 11 245.388 L 11 267.648 C 11 272.362 14.828 276.19 19.542 276.19 L 25.458 276.19 C 30.172 276.19 34 272.362 34 267.648 L 34 245.388 C 34 240.673 30.172 236.845 25.458 236.845 L 19.542 236.845 Z  M 501 108.458 L 501 108.458 Z  M 486.542 187.147 C 481.828 187.147 478 190.975 478 195.689 L 478 217.949 C 478 222.664 481.828 226.492 486.542 226.492 L 492.458 226.492 C 497.172 226.492 501 222.664 501 217.949 L 501 195.689 C 501 190.975 497.172 187.147 492.458 187.147 L 486.542 187.147 Z  M 501 108.458 L 501 108.458 Z  M 19.542 187.147 C 14.828 187.147 11 190.975 11 195.689 L 11 217.949 C 11 222.664 14.828 226.492 19.542 226.492 L 25.458 226.492 C 30.172 226.492 34 222.664 34 217.949 L 34 195.689 C 34 190.975 30.172 187.147 25.458 187.147 L 19.542 187.147 Z  M 501 108.458 L 501 108.458 Z  M 486.542 137.449 C 481.828 137.449 478 141.276 478 145.991 L 478 168.251 C 478 172.966 481.828 176.793 486.542 176.793 L 492.458 176.793 C 497.172 176.793 501 172.966 501 168.251 L 501 145.991 C 501 141.276 497.172 137.449 492.458 137.449 L 486.542 137.449 Z  M 501 108.458 L 501 108.458 Z  M 478 403.542 L 34 403.542 L 34 403.542 L 34 393.447 C 34 388.733 30.172 384.905 25.458 384.905 L 19.542 384.905 C 14.828 384.905 11 388.733 11 393.447 L 11 403.542 L 0 403.542 L 0 108.458 L 11 108.458 L 11 119.588 C 11 124.303 14.828 128.13 19.542 128.13 L 25.458 128.13 C 30.172 128.13 34 124.303 34 119.588 L 34 108.458 L 478 108.458 L 478 119.588 C 478 124.303 481.828 128.13 486.542 128.13 L 492.458 128.13 C 497.172 128.13 501 124.303 501 119.588 L 501 108.458 L 512 108.458 L 512 403.542 L 501 403.542 L 501 393.447 C 501 388.733 497.172 384.905 492.458 384.905 L 486.542 384.905 C 481.828 384.905 478 388.733 478 393.447 L 478 403.542 Z  M 19.542 137.449 L 25.458 137.449 C 30.172 137.449 34 141.276 34 145.991 L 34 168.251 C 34 172.966 30.172 176.793 25.458 176.793 L 19.542 176.793 C 14.828 176.793 11 172.966 11 168.251 L 11 145.991 C 11 141.276 14.828 137.449 19.542 137.449 L 19.542 137.449 Z " fill-rule="evenodd" fill="rgb(0,0,0)"/><linearGradient id="_lgradient_16" x1="0%" y1="50.000000000000014%" x2="100.60287081339713%" y2="49.87487264391272%"><stop offset="0%" stop-opacity="1" style="stop-color:rgb(255,247,0)"/><stop offset="60%" stop-opacity="1" style="stop-color:rgb(255,127,0)"/><stop offset="99.1304347826087%" stop-opacity="1" style="stop-color:rgb(255,0,0)"/></linearGradient><rect x="47" y="128.13" width="418" height="255.739" transform="matrix(1,0,0,1,0,0)" fill="url(#_lgradient_16)"/><path d=" M 284.987 269.941 L 262.725 283.589 L 240.464 297.237 C 227.914 304.931 217.725 299.227 217.725 284.506 L 217.725 256 L 217.725 227.494 C 217.725 212.773 227.914 207.069 240.464 214.763 L 262.725 228.411 L 284.987 242.059 C 297.536 249.753 297.536 262.247 284.987 269.941 Z " fill="rgb(244,67,54)" vector-effect="non-scaling-stroke" stroke-width="5" stroke="rgb(255,255,255)" stroke-linejoin="miter" stroke-linecap="square" stroke-miterlimit="3"/></g></svg>