<?xml version="1.0" standalone="no"?><!-- Generator: Gravit.io --><svg xmlns="http://www.w3.org/2000/svg" xmlns:xlink="http://www.w3.org/1999/xlink" style="isolation:isolate" viewBox="0 0 400 512" width="400" height="512"><defs><clipPath id="_clipPath_tz0EfKPmxgjF8HsfbKh5w71fzSJWpWwF"><rect width="400" height="512"/></clipPath></defs><g clip-path="url(#_clipPath_tz0EfKPmxgjF8HsfbKh5w71fzSJWpWwF)"><path d=" M 373.438 371.773 L 26.563 371.773 L 26.563 363.838 C 26.562 360.146 23.566 357.149 19.874 357.149 L 15.282 357.149 C 11.591 357.149 8.594 360.146 8.594 363.838 L 8.594 371.773 L 0 371.773 L 0 140.227 L 8.594 140.227 L 8.594 148.975 C 8.594 152.666 11.591 155.663 15.282 155.663 L 19.874 155.663 C 23.566 155.663 26.562 152.666 26.563 148.975 L 26.563 140.227 L 373.438 140.227 L 373.438 148.975 C 373.438 152.666 376.434 155.663 380.126 155.663 L 384.718 155.663 C 388.409 155.663 391.406 152.666 391.406 148.975 L 391.406 140.227 L 400 140.227 L 400 371.773 L 391.406 371.773 L 391.406 363.838 C 391.406 360.146 388.409 357.149 384.718 357.149 L 380.126 357.149 C 376.434 357.149 373.438 360.146 373.438 363.838 L 373.438 371.773 Z  M 36.719 155.663 L 363.281 155.663 L 363.281 356.337 L 36.719 356.337 L 36.719 155.663 Z  M 15.282 162.975 L 19.874 162.975 C 23.566 162.975 26.562 165.972 26.563 169.663 L 26.563 187.16 C 26.562 190.851 23.566 193.848 19.874 193.848 L 15.282 193.848 C 11.591 193.848 8.594 190.851 8.594 187.16 L 8.594 169.663 C 8.594 165.972 11.591 162.975 15.282 162.975 Z  M 391.406 140.227 L 391.406 140.227 Z  M 380.126 162.975 C 376.434 162.975 373.438 165.972 373.438 169.663 L 373.438 187.16 C 373.438 190.851 376.434 193.848 380.126 193.848 L 384.718 193.848 C 388.409 193.848 391.406 190.851 391.406 187.16 L 391.406 169.663 C 391.406 165.972 388.409 162.975 384.718 162.975 L 380.126 162.975 Z  M 391.406 140.227 L 391.406 140.227 Z  M 15.282 201.972 C 11.591 201.972 8.594 204.969 8.594 208.661 L 8.594 226.157 C 8.594 229.848 11.591 232.845 15.282 232.845 L 19.874 232.845 C 23.566 232.845 26.562 229.848 26.563 226.157 L 26.563 208.661 C 26.562 204.969 23.566 201.972 19.874 201.972 L 15.282 201.972 Z  M 391.406 140.227 L 391.406 140.227 Z  M 380.126 201.972 C 376.434 201.972 373.438 204.969 373.438 208.661 L 373.438 226.157 C 373.438 229.848 376.434 232.845 380.126 232.845 L 384.718 232.845 C 388.409 232.845 391.406 229.848 391.406 226.157 L 391.406 208.661 C 391.406 204.969 388.409 201.972 384.718 201.972 L 380.126 201.972 Z  M 391.406 140.227 L 391.406 140.227 Z  M 15.282 240.97 C 11.591 240.97 8.594 243.967 8.594 247.658 L 8.594 265.154 C 8.594 268.846 11.591 271.843 15.282 271.843 L 19.874 271.843 C 23.566 271.843 26.562 268.846 26.563 265.154 L 26.563 247.658 C 26.562 243.967 23.566 240.97 19.874 240.97 L 15.282 240.97 Z  M 380.126 319.777 C 376.434 319.777 373.438 322.774 373.438 326.465 L 373.438 343.962 C 373.438 347.653 376.434 350.65 380.126 350.65 L 384.718 350.65 C 388.409 350.65 391.406 347.653 391.406 343.962 L 391.406 326.465 C 391.406 322.774 388.409 319.777 384.718 319.777 L 380.126 319.777 Z  M 380.126 240.97 C 376.434 240.97 373.438 243.967 373.438 247.658 L 373.438 265.154 C 373.438 268.846 376.434 271.843 380.126 271.843 L 384.718 271.843 C 388.409 271.843 391.406 268.846 391.406 265.154 L 391.406 247.658 C 391.406 243.967 388.409 240.97 384.718 240.97 L 380.126 240.97 Z  M 391.406 140.227 L 391.406 140.227 Z  M 15.282 279.967 C 11.591 279.967 8.594 282.964 8.594 286.655 L 8.594 304.152 C 8.594 307.843 11.591 310.84 15.282 310.84 L 19.874 310.84 C 23.566 310.84 26.562 307.843 26.563 304.152 L 26.563 286.655 C 26.562 282.964 23.566 279.967 19.874 279.967 L 15.282 279.967 Z  M 391.406 140.227 L 391.406 140.227 Z  M 380.126 279.967 C 376.434 279.967 373.438 282.964 373.438 286.655 L 373.438 304.152 C 373.438 307.843 376.434 310.84 380.126 310.84 L 384.718 310.84 C 388.409 310.84 391.406 307.843 391.406 304.152 L 391.406 286.655 C 391.406 282.964 388.409 279.967 384.718 279.967 L 380.126 279.967 Z  M 391.406 140.227 L 391.406 140.227 Z  M 15.282 319.777 C 11.591 319.777 8.594 322.774 8.594 326.465 L 8.594 343.962 C 8.594 347.653 11.591 350.65 15.282 350.65 L 19.874 350.65 C 23.566 350.65 26.562 347.653 26.563 343.962 L 26.563 326.465 C 26.562 322.774 23.566 319.777 19.874 319.777 L 15.282 319.777 Z  M 391.406 140.227 L 391.406 140.227 Z  M 391.406 140.227 L 391.406 140.227 Z " fill-rule="evenodd" fill="rgb(0,0,0)"/><g opacity="0"><linearGradient id="_lgradient_32" x1="0%" y1="50%" x2="100.60287081339713%" y2="49.8748726439127%"><stop offset="0%" stop-opacity="1" style="stop-color:rgb(255,247,0)"/><stop offset="99.1304347826087%" stop-opacity="1" style="stop-color:rgb(255,0,0)"/></linearGradient><rect x="47" y="-166.968" width="418" height="255.748" transform="matrix(1,0,0,1,0,0)" fill="url(#_lgradient_32)" fill-opacity="0.5"/><linearGradient id="_lgradient_33" x1="0%" y1="50%" x2="100%" y2="50%"><stop offset="1.7391304347826086%" stop-opacity="1" style="stop-color:rgb(144,0,255)"/><stop offset="100%" stop-opacity="1" style="stop-color:rgb(0,0,0)"/></linearGradient><rect x="47" y="-166.968" width="418" height="255.748" transform="matrix(1,0,0,1,0,0)" fill="url(#_lgradient_33)" fill-opacity="0.5"/></g><path d=" M 217.651 269.985 L 205.205 277.648 L 192.76 285.312 C 180.226 293.03 170.049 287.346 170.049 272.625 L 170.049 256 L 170.049 239.375 C 170.049 224.654 180.226 218.97 192.76 226.688 L 205.205 234.352 L 217.651 242.015 C 230.185 249.734 230.185 262.266 217.651 269.985 Z " fill="rgb(244,67,54)" vector-effect="non-scaling-stroke" stroke-width="5" stroke="rgb(255,255,255)" stroke-linejoin="miter" stroke-linecap="square" stroke-miterlimit="3"/></g></svg>