<?xml version="1.0" standalone="no"?><!-- Generator: Gravit.io --><svg xmlns="http://www.w3.org/2000/svg" xmlns:xlink="http://www.w3.org/1999/xlink" style="isolation:isolate" viewBox="0 0 512 512" width="512" height="512"><defs><clipPath id="_clipPath_qcTH01b9cVg3ozbYXBrDk8tjAnZAPWL8"><rect width="512" height="512"/></clipPath></defs><g clip-path="url(#_clipPath_qcTH01b9cVg3ozbYXBrDk8tjAnZAPWL8)"><path d=" M 478 403.547 L 34 403.547 L 34 393.452 C 34 388.737 30.172 384.909 25.458 384.909 L 19.542 384.909 C 14.828 384.909 11 388.737 11 393.452 L 11 403.547 L 0 403.547 L 0 108.453 L 11 108.453 L 11 119.584 C 11 124.298 14.828 128.126 19.542 128.126 L 25.458 128.126 C 30.172 128.126 34 124.298 34 119.584 L 34 108.453 L 478 108.453 L 478 119.584 C 478 124.298 481.828 128.126 486.542 128.126 L 492.458 128.126 C 497.172 128.126 501 124.298 501 119.584 L 501 108.453 L 512 108.453 L 512 403.547 L 501 403.547 L 501 393.452 C 501 388.737 497.172 384.909 492.458 384.909 L 486.542 384.909 C 481.828 384.909 478 388.737 478 393.452 L 478 403.547 Z  M 47 128.126 L 465 128.126 L 465 383.874 L 47 383.874 L 47 128.126 Z  M 19.542 137.445 L 25.458 137.445 C 30.172 137.445 34 141.273 34 145.987 L 34 168.248 C 34 172.963 30.172 176.791 25.458 176.791 L 19.542 176.791 C 14.828 176.791 11 172.963 11 168.248 L 11 145.987 C 11 141.273 14.828 137.445 19.542 137.445 Z  M 501 108.453 L 501 108.453 Z  M 486.542 137.445 C 481.828 137.445 478 141.273 478 145.987 L 478 168.248 C 478 172.963 481.828 176.791 486.542 176.791 L 492.458 176.791 C 497.172 176.791 501 172.963 501 168.248 L 501 145.987 C 501 141.273 497.172 137.445 492.458 137.445 L 486.542 137.445 Z  M 501 108.453 L 501 108.453 Z  M 19.542 187.145 C 14.828 187.145 11 190.973 11 195.687 L 11 217.948 C 11 222.663 14.828 226.491 19.542 226.491 L 25.458 226.491 C 30.172 226.491 34 222.663 34 217.948 L 34 195.687 C 34 190.973 30.172 187.145 25.458 187.145 L 19.542 187.145 Z  M 501 108.453 L 501 108.453 Z  M 486.542 187.145 C 481.828 187.145 478 190.973 478 195.687 L 478 217.948 C 478 222.663 481.828 226.491 486.542 226.491 L 492.458 226.491 C 497.172 226.491 501 222.663 501 217.948 L 501 195.687 C 501 190.973 497.172 187.145 492.458 187.145 L 486.542 187.145 Z  M 501 108.453 L 501 108.453 Z  M 19.542 236.845 C 14.828 236.845 11 240.672 11 245.387 L 11 267.648 C 11 272.363 14.828 276.191 19.542 276.191 L 25.458 276.191 C 30.172 276.191 34 272.363 34 267.648 L 34 245.387 C 34 240.672 30.172 236.845 25.458 236.845 L 19.542 236.845 Z  M 486.542 337.28 C 481.828 337.28 478 341.108 478 345.823 L 478 368.084 C 478 372.798 481.828 376.626 486.542 376.626 L 492.458 376.626 C 497.172 376.626 501 372.798 501 368.084 L 501 345.823 C 501 341.108 497.172 337.28 492.458 337.28 L 486.542 337.28 Z  M 486.542 236.845 C 481.828 236.845 478 240.672 478 245.387 L 478 267.648 C 478 272.363 481.828 276.191 486.542 276.191 L 492.458 276.191 C 497.172 276.191 501 272.363 501 267.648 L 501 245.387 C 501 240.672 497.172 236.845 492.458 236.845 L 486.542 236.845 Z  M 501 108.453 L 501 108.453 Z  M 19.542 286.545 C 14.828 286.545 11 290.372 11 295.087 L 11 317.348 C 11 322.063 14.828 325.891 19.542 325.891 L 25.458 325.891 C 30.172 325.891 34 322.063 34 317.348 L 34 295.087 C 34 290.372 30.172 286.545 25.458 286.545 L 19.542 286.545 Z  M 501 108.453 L 501 108.453 Z  M 486.542 286.545 C 481.828 286.545 478 290.372 478 295.087 L 478 317.348 C 478 322.063 481.828 325.891 486.542 325.891 L 492.458 325.891 C 497.172 325.891 501 322.063 501 317.348 L 501 295.087 C 501 290.372 497.172 286.545 492.458 286.545 L 486.542 286.545 Z  M 501 108.453 L 501 108.453 Z  M 19.542 337.28 C 14.828 337.28 11 341.108 11 345.823 L 11 368.084 C 11 372.798 14.828 376.626 19.542 376.626 L 25.458 376.626 C 30.172 376.626 34 372.798 34 368.084 L 34 345.823 C 34 341.108 30.172 337.28 25.458 337.28 L 19.542 337.28 Z  M 501 108.453 L 501 108.453 Z  M 501 108.453 L 501 108.453 Z " fill-rule="evenodd" fill="rgb(0,0,0)"/><g opacity="0"><linearGradient id="_lgradient_28" x1="0%" y1="50%" x2="100.60287081339713%" y2="49.8748726439127%"><stop offset="0%" stop-opacity="1" style="stop-color:rgb(255,247,0)"/><stop offset="99.1304347826087%" stop-opacity="1" style="stop-color:rgb(255,0,0)"/></linearGradient><rect x="47" y="-166.968" width="418" height="255.748" transform="matrix(1,0,0,1,0,0)" fill="url(#_lgradient_28)" fill-opacity="0.5"/><linearGradient id="_lgradient_29" x1="0%" y1="50%" x2="100%" y2="50%"><stop offset="1.7391304347826086%" stop-opacity="1" style="stop-color:rgb(144,0,255)"/><stop offset="100%" stop-opacity="1" style="stop-color:rgb(0,0,0)"/></linearGradient><rect x="47" y="-166.968" width="418" height="255.748" transform="matrix(1,0,0,1,0,0)" fill="url(#_lgradient_29)" fill-opacity="0.5"/></g><path d=" M 284.925 269.941 L 262.663 283.59 L 240.401 297.239 C 227.852 304.933 217.663 299.228 217.663 284.508 L 217.663 256 L 217.663 227.492 C 217.663 212.772 227.852 207.067 240.401 214.761 L 262.663 228.41 L 284.925 242.059 C 297.474 249.753 297.474 262.247 284.925 269.941 Z " fill="rgb(244,67,54)" vector-effect="non-scaling-stroke" stroke-width="5" stroke="rgb(255,255,255)" stroke-linejoin="miter" stroke-linecap="square" stroke-miterlimit="3"/></g></svg>